# xmcd
#
# Track frame offsets:
#	187
#	10655
#	29777
#	42037
#	57560
#	74657
#	97007
#	110672
#	122725
#	137450
#	146657
#	159010
#	175717
#
# Disc length: 3573
#
# Revision: 1
# Processed by: cddbd v1.5.1PL0 Copyright (c) Steve Scherf et al.
# Submitted via: CDex 1.51
# Normalized: r0:TRMNUM
#
DISCID=b40df30d
DTITLE=The Star Club - 監獄からの伝言
DYEAR=1992
DGENRE=Punk Rock
TTITLE0=BAD BULLET BOY
TTITLE1=CRACKERS
TTITLE2=KISS MY <A>?
TTITLE3=EVERYONE WANTS CASH
TTITLE4=NOISE ENERGY. NOISE LIVE
TTITLE5=WILLPOWER
TTITLE6=GO!GO!BACKWARD
TTITLE7=FLASH OUT
TTITLE8=HAPPY BIRTHDAY
TTITLE9=HYSTERIC CRY
TTITLE10=C.K.TRAFFICKER
TTITLE11=VIRTUAL REALTY
TTITLE12=犯罪者の憂鬱(GUILTY BLUE)
EXTD=YEAR: 1992
EXTT0=
EXTT1=
EXTT2=
EXTT3=
EXTT4=
EXTT5=
EXTT6=
EXTT7=
EXTT8=
EXTT9=
EXTT10=
EXTT11=
EXTT12=
PLAYORDER=
